<svg xmlns="http://www.w3.org/2000/svg" xmlns:xlink="http://www.w3.org/1999/xlink" viewBox="0,0,256,256" width="64px" height="64px"><defs><linearGradient x1="31" y1="28.667" x2="31" y2="43.546" gradientUnits="userSpaceOnUse" id="color-1"><stop offset="0" stop-color="#a5f3fc"></stop><stop offset="1" stop-color="#f5d0fe"></stop></linearGradient><linearGradient x1="32" y1="9.75" x2="32" y2="54.584" gradientUnits="userSpaceOnUse" id="color-2"><stop offset="0" stop-color="#3b82f6"></stop><stop offset="1" stop-color="#8b5cf6"></stop></linearGradient><linearGradient x1="23" y1="9.75" x2="23" y2="54.584" gradientUnits="userSpaceOnUse" id="color-3"><stop offset="0" stop-color="#3b82f6"></stop><stop offset="1" stop-color="#8b5cf6"></stop></linearGradient><linearGradient x1="23" y1="9.75" x2="23" y2="54.584" gradientUnits="userSpaceOnUse" id="color-4"><stop offset="0" stop-color="#3b82f6"></stop><stop offset="1" stop-color="#8b5cf6"></stop></linearGradient><linearGradient x1="17.5" y1="9.75" x2="17.5" y2="54.584" gradientUnits="userSpaceOnUse" id="color-5"><stop offset="0" stop-color="#3b82f6"></stop><stop offset="1" stop-color="#8b5cf6"></stop></linearGradient><linearGradient x1="17.5" y1="9.75" x2="17.5" y2="54.584" gradientUnits="userSpaceOnUse" id="color-6"><stop offset="0" stop-color="#3b82f6"></stop><stop offset="1" stop-color="#8b5cf6"></stop></linearGradient><linearGradient x1="17.5" y1="9.75" x2="17.5" y2="54.584" gradientUnits="userSpaceOnUse" id="color-7"><stop offset="0" stop-color="#3b82f6"></stop><stop offset="1" stop-color="#8b5cf6"></stop></linearGradient><linearGradient x1="17.5" y1="9.75" x2="17.5" y2="54.584" gradientUnits="userSpaceOnUse" id="color-8"><stop offset="0" stop-color="#3b82f6"></stop><stop offset="1" stop-color="#8b5cf6"></stop></linearGradient></defs><g fill="none" fill-rule="nonzero" stroke="none" stroke-width="1" stroke-linecap="butt" stroke-linejoin="miter" stroke-miterlimit="10" stroke-dasharray="" stroke-dashoffset="0" font-family="none" font-weight="none" font-size="none" text-anchor="none" style="mix-blend-mode: normal"><g transform="scale(4,4)"><path d="M34,43h-6c-0.552,0 -1,-0.448 -1,-1v-12c0,-0.552 0.448,-1 1,-1h6c0.552,0 1,0.448 1,1v12c0,0.552 -0.448,1 -1,1z" fill="url(#color-1)"></path><path d="M53.489,19.023c-0.164,-0.015 -0.326,0.005 -0.489,0.005v-0.028h-11v-6c0,-1.654 -1.346,-3 -3,-3h-30c-1.654,0 -3,1.346 -3,3v36c0,2.757 2.243,5 5,5h34v0c0.004,0 0.007,0 0.011,0c0.158,0 0.317,-0.008 0.477,-0.023c2.53,-0.241 4.512,-2.503 4.512,-5.149v-2.828h6c1.103,0 2,-0.897 2,-2v-19.828c0,-2.645 -1.981,-4.907 -4.511,-5.149zM42,31h2v10h-2zM8,49v-36c0,-0.551 0.448,-1 1,-1h30c0.552,0 1,0.449 1,1v36c0,1.09 0.367,2.14 1.013,3h-30.013c-1.654,0 -3,-1.346 -3,-3zM48,23.997v24.832c0,1.626 -1.188,3.013 -2.702,3.158c-0.856,0.085 -1.683,-0.189 -2.315,-0.766c-0.625,-0.568 -0.983,-1.378 -0.983,-2.221v-6h2c1.103,0 2,-0.897 2,-2v-10c0,-1.103 -0.897,-2 -2,-2h-2v-2h4v-2h-4v-4h7.012c-0.645,0.86 -1.012,1.908 -1.012,2.997zM56,44h-6v-5h2v-2h-2v-2h2v-2h-2v-2h2v-2h-2v-2h2v-2h-2v-1.003c0,-0.842 0.357,-1.649 0.981,-2.217c0.634,-0.576 1.448,-0.848 2.318,-0.765c1.514,0.145 2.7,1.531 2.7,3.157v19.828z" fill="url(#color-2)"></path><path d="M11,21h24v2h-24z" fill="url(#color-3)"></path><path d="M11,25h24v2h-24z" fill="url(#color-4)"></path><path d="M11,29h13v2h-13z" fill="url(#color-5)"></path><path d="M11,33h13v2h-13z" fill="url(#color-6)"></path><path d="M11,37h13v2h-13z" fill="url(#color-7)"></path><path d="M11,41h13v2h-13z" fill="url(#color-8)"></path></g></g></svg>
